<svg width="17" height="17" viewBox="0 0 17 17" fill="none" xmlns="http://www.w3.org/2000/svg">
<path fill-rule="evenodd" clip-rule="evenodd" d="M7.20942 1.79126C7.72812 1.79126 8.22513 1.99954 8.59196 2.37084L14.1688 8.01557C14.3505 8.19935 14.4946 8.41755 14.5929 8.65772C14.6912 8.89788 14.7418 9.1553 14.7418 9.41527C14.7418 9.67524 14.6912 9.93266 14.5929 10.1728C14.4946 10.413 14.3505 10.6312 14.1688 10.815L10.5083 14.52C10.3268 14.7039 10.1112 14.8498 9.8739 14.9493C9.63662 15.0488 9.38229 15.1 9.12545 15.1C8.86861 15.1 8.61429 15.0488 8.37701 14.9493C8.13973 14.8498 7.92415 14.7039 7.74259 14.52L2.16575 8.87529C1.9842 8.69152 1.84019 8.47335 1.74195 8.23324C1.6437 7.99314 1.59314 7.7358 1.59315 7.47592V3.77021C1.59315 3.24536 1.79914 2.74201 2.1658 2.37088C2.53246 1.99976 3.02976 1.79126 3.54829 1.79126H7.20942ZM7.20942 3.12209H3.54829C3.37847 3.12209 3.2156 3.19038 3.09552 3.31192C2.97543 3.43347 2.90797 3.59832 2.90797 3.77021V7.47592C2.90797 7.64759 2.97569 7.81262 3.09534 7.93439L8.67217 13.5791C8.92198 13.832 9.32826 13.832 9.57808 13.5791L13.2392 9.87341C13.2987 9.81322 13.3459 9.74175 13.3781 9.66308C13.4104 9.58442 13.4269 9.5001 13.4269 9.41494C13.4269 9.32978 13.4104 9.24546 13.3781 9.1668C13.3459 9.08813 13.2987 9.01666 13.2392 8.95647L7.66238 3.31174C7.60281 3.25149 7.53207 3.20372 7.45424 3.17118C7.3764 3.13864 7.29298 3.12196 7.20877 3.12209H7.20942ZM5.53762 4.45293C5.88634 4.45293 6.22077 4.59314 6.46734 4.84272C6.71392 5.0923 6.85245 5.4308 6.85245 5.78376C6.85245 6.13672 6.71392 6.47522 6.46734 6.7248C6.22077 6.97438 5.88634 7.11459 5.53762 7.11459C5.18891 7.11459 4.85448 6.97438 4.6079 6.7248C4.36132 6.47522 4.2228 6.13672 4.2228 5.78376C4.2228 5.4308 4.36132 5.0923 4.6079 4.84272C4.85448 4.59314 5.18891 4.45293 5.53762 4.45293Z" fill="#7AC751"/>
</svg>
